<?xml version="1.0" encoding="utf-8"?>
<!-- Generator: Adobe Illustrator 25.4.1, SVG Export Plug-In . SVG Version: 6.00 Build 0)  -->
<svg version="1.1" id="Layer_1" xmlns="http://www.w3.org/2000/svg" xmlns:xlink="http://www.w3.org/1999/xlink" x="0px" y="0px"
	 width="1920px" height="1080px" viewBox="0 0 1920 1080" style="enable-background:new 0 0 1920 1080;" xml:space="preserve">
<style type="text/css">
	.st0{fill:#9FAAAA;}
	.st1{fill:#434C4C;}
	.st2{fill:#354746;}
	.st3{fill:#8EC1C1;stroke:#000000;stroke-width:2;stroke-miterlimit:10;}
	.st4{fill:none;stroke:#000000;stroke-width:2;stroke-miterlimit:10;}
	.st5{fill:none;stroke:#000000;stroke-miterlimit:10;}
</style>
<g>
	<g>
		<path class="st0" d="M1411.9,611.7c-32.5,0-73.1-1.7-122.9-4c-75.3-3.4-161-17.1-260.2-32.9c-35.1-5.6-71.4-11.4-110.2-17.2
			c-171.7-25.8-305.5-52.1-397.5-78.2l-8.1-2.3c-74-20.9-122.8-34.7-127.4-50.9c-1.1-3.8,0.3-7.7,4.2-12c11-12,20.7-13.9,38.3-17.4
			c18.3-3.6,43.4-8.5,85.3-27.6c19.1-8.7,43-12.9,73-12.9c62.5,0,139.7,18.3,221.4,37.6c40.4,9.6,82.3,19.5,122.1,26.9
			c151.5,28.4,309.2,65.7,421.8,99.8c42.8,13,79.2,27,105.2,40.7c24.3,12.8,37.9,24.4,38.4,32.8c0.2,3.9-2.6,7.1-8.2,9.6
			C1474.2,609.1,1450.3,611.7,1411.9,611.7z"/>
		<path d="M586.3,357.3c62.3,0,139.5,18.2,221.2,37.6c40.5,9.6,82.3,19.5,122.1,26.9c151.5,28.4,309.1,65.7,421.7,99.7
			c97,29.4,142.1,58.2,142.9,72.6c0.2,3.4-2.4,6.3-7.6,8.6c-12.6,5.4-36.4,8-74.7,8c-32.4,0-73.1-1.7-122.9-4
			c-75.2-3.4-160.9-17.1-260.1-32.9c-35.1-5.6-71.3-11.4-110.2-17.2c-171.7-25.8-305.4-52.1-397.4-78.2l-8.1-2.3
			c-38.2-10.8-68.4-19.4-90.4-27.5c-22.8-8.4-34.4-15.7-36.4-22.8c-1-3.4,0.3-7,4-11c10.8-11.8,20.4-13.6,37.8-17
			c18.4-3.6,43.5-8.5,85.5-27.6C532.7,361.5,556.4,357.3,586.3,357.3L586.3,357.3 M586.3,355.3c-28.2,0-53.1,3.8-73.4,13
			c-82.5,37.5-101.2,20.4-123.9,45.1c-22.1,24.1,33.1,38.9,131.8,66.8s239.1,54.4,397.6,78.2c151.2,22.7,269.1,45.5,370.5,50.2
			c48.6,2.2,90,4,123,4c35.8,0,61.5-2.1,75.5-8.1c31.8-13.7-24.3-51.3-135.5-84.9c-111.2-33.7-268.7-71.1-421.9-99.8
			C812,397.7,680.7,355.3,586.3,355.3L586.3,355.3z"/>
	</g>
	<g>
		<polygon class="st0" points="1293.6,503.4 1548.7,396.1 1625.7,419.9 1462.6,563.1 		"/>
		<g>
			<path d="M1548.7,397.2l75,23.2L1462.3,562l-165.9-58.6L1548.7,397.2 M1548.6,395l-257.7,108.5l171.9,60.8l165-144.8L1548.6,395
				L1548.6,395z"/>
		</g>
	</g>
	<g>
		<path class="st1" d="M1187.3,548c-26.9-2.1-121.4-10.3-207.8-27.9c-107-21.9-176-43.3-180.9-51.3c-0.1-0.2-0.2-0.4-0.2-0.6
			c0.1-0.2,1-2.2,13.6-2.2c29.8,0,98.6,10.1,175.3,25.8C1073.5,509.5,1162,539.3,1187.3,548z"/>
		<path d="M811.9,467c29.8,0,98.5,10.1,175.1,25.8c79.1,16.2,160.1,42.6,192.4,53.6c-34.4-2.8-120.5-11.1-199.8-27.3
			c-47.9-9.8-93-20.6-126.9-30.4c-45.5-13.1-52.3-18.9-53.3-20.3C800.2,468,802.9,467,811.9,467L811.9,467 M811.9,465
			c-8.9,0-14,0.9-14.6,2.9c-2.3,8.3,79.2,32.1,181.9,53.2c102.7,21,215.5,28.5,215.5,28.5s-104.5-37.7-207.2-58.7
			C908.9,474.8,840.7,465,811.9,465L811.9,465z"/>
	</g>
	<g>
		<path class="st2" d="M1440.7,593.9c-13.3-0.1-50.7-1.1-93.4-8.8c-60.2-10.9-94.4-21.8-95-25.3l0,0c0,0,1-1.2,10-1.2
			c17.1,0,50.8,4.2,87.9,10.9C1392.6,577.2,1427.9,589.3,1440.7,593.9z"/>
		<path d="M1262.3,559.7c17.1,0,50.7,4.2,87.7,10.8c37.1,6.7,68.9,16.8,84.7,22.4c-16.6-0.3-49.9-2-87.2-8.7
			c-24.6-4.4-47.8-9.5-65.6-14.2c-19.5-5.2-25.8-8.3-27.8-9.7C1255.3,560,1257.7,559.7,1262.3,559.7L1262.3,559.7 M1262.3,557.7
			c-6.8,0-10.7,0.7-10.9,2.1c-0.9,4.9,42,16.7,95.8,26.4c45.2,8.2,84.3,8.8,95.7,8.8c2.2,0,3.3,0,3.3,0s-42-16.7-95.8-26.4
			C1312.2,561.6,1278.8,557.7,1262.3,557.7L1262.3,557.7z"/>
	</g>
	<g>
		<polygon class="st3" points="515.6,404.8 442,393.7 473.6,384.8 530.6,392.8 		"/>
		<polyline class="st3" points="489.1,387 489.1,387 467.5,397.5 		"/>
		<line class="st4" x1="510.5" y1="390" x2="493.5" y2="401.5"/>
	</g>
	<path class="st5" d="M292.6,354.8c461.6-13.9,843.2,36,1345,74"/>
	<path class="st5" d="M287.6,379.8c482.8-2.2,976.7,66,1373,89"/>
	<path class="st5" d="M277.6,430.8c241.4,14.3,357.9,11.8,419,7c12.2-1,51.8-20.5,108-25c34.4-2.8,71.1-0.9,138,14
		c128.5,28.6,153.1,57.4,256,76c32.2,5.8,64,4.6,127,11c119.4,12.1,178.8,29.4,317,33"/>
	<path class="st5" d="M288.5,461.9c241.3,16.9,357.9,15,419,7c12.1-1.6,51.8-20.5,108-25c34.4-2.8,71.1-0.9,138,14
		c128.5,28.6,153.1,57.4,256,76c32.2,5.8,64.5-1.2,125.1,16.9c148.2,44.3,285.8,46.2,308,48"/>
	<path class="st5" d="M290.6,507.8c226.7-4.5,481.1,13.7,507-40c1.2-2.6,5.3-2,8-3"/>
	<path class="st5" d="M1649.1,637.5c-143.6-11.3-292.7-36.4-442.6-81.2c-9.9-3-19.7-6-29.3-9"/>
	<path class="st5" d="M281.6,527.8c203.8,1.5,313.6-5,453-16c106.7-8.4,251.1,35.6,473,73c185.6,31.3,340.3,62.9,435,75"/>
	<path class="st5" d="M259.4,595.6c203.8,1.5,323.5-1.4,463.3-2.8c105-1,252,30,462.7,59.8c186.4,26.3,340.3,62.9,435,75"/>
	<path class="st5" d="M259.4,565.6c203.8,1.5,290.9,1.3,430.3-9.8c106.7-8.4,273.8,29.3,495.7,66.8c185.6,31.3,340.3,62.9,435,75"/>
</g>
</svg>
