<?xml version="1.0" encoding="utf-8"?>
<!-- Generator: Adobe Illustrator 25.4.1, SVG Export Plug-In . SVG Version: 6.00 Build 0)  -->
<svg version="1.1" id="Layer_1" xmlns="http://www.w3.org/2000/svg" xmlns:xlink="http://www.w3.org/1999/xlink" x="0px" y="0px"
	 width="1920px" height="1080px" viewBox="0 0 1920 1080" enable-background="new 0 0 1920 1080" xml:space="preserve">
<g>
	<path fill="#D8D8D8" d="M777.95,607.79c8.82,1.8,17.1,4.06,24.84,6.81c23.91,8.44,42.76,21.32,56.95,38.36
		c7.39,8.88,13.49,18.87,18.37,29.97c5.41,12.26,9.31,25.88,11.76,40.77l243.29-238.55l1.57-1.21l-0.17-0.17l-1.2-1.22
		c-18.29-11-40.41-29.7-60.71-50.32l-0.56-0.57c-20.65-21.15-39.23-44.15-49.77-62.88l-1.4-1.42l-10.24,10.04l-24.47,24
		l-41.72,40.91l-24.47,24l-41.72,40.91l-24.47,24l-41.71,40.9l-24.49,24.01l-6.55,6.42l-4.97,4.88L777.95,607.79z"/>
	<path opacity="0.2" d="M1134.72,483.94l-1.57,1.21l-12.71,9.79c-4.29,4.2-10.51,3.64-15.16-0.15c-1.64-1.33-3.23-2.65-4.8-3.97
		l-0.02-0.02c-9.19-7.78-17.23-15.49-26.73-25.12l-5.65-6.29l-41.46-46.08c-4.34-5.47-12.48-5.96-17.47-1.07L802.78,614.6
		c-7.73-2.74-16.02-5.01-24.84-6.81c0.55-1.95,1.6-3.76,3.11-5.24l239.86-235.19l1.4,1.42c10.53,18.73,29.12,41.73,49.77,62.88
		l0.56,0.57c20.31,20.62,42.42,39.31,60.71,50.32L1134.72,483.94z"/>
	<path fill="#D8D8D8" d="M1072.6,430.73c-38.02-38.94-69.12-84.2-55.66-97.39c4.65-7.03,114.58-14.54,177.25-21.83l0.55,0.56
		c-8.52,62.52-18.19,172.28-25.31,176.79c-13.46,13.19-58.09-18.79-96.28-57.57"/>
	<g>
		<path fill="#FFFFFF" d="M1007.76,376.93l-24.46,23.98c22.82,3.82,45.68,7.3,68.56,10.59c-9.36-10.75-17.77-21.51-24.52-31.53
			C1020.81,378.98,1014.27,377.99,1007.76,376.93z"/>
		<path fill="#FFFFFF" d="M941.56,441.84l-24.46,23.98c68.07,11.37,136.3,20.42,204.96,27.19l10.59-10.38
			c-8.35-4.85-17.54-11.39-27.05-19.05C1050.72,457.8,996.07,450.58,941.56,441.84z"/>
		<path fill="#FFFFFF" d="M850.9,530.73c68.07,11.37,136.3,20.42,204.96,27.19l25.76-25.26c-69.12-6.32-137.78-14.95-206.26-25.92
			L850.9,530.73z"/>
		<path fill="#FFFFFF" d="M784.71,595.64c68.07,11.37,136.3,20.42,204.96,27.19l25.76-25.26c-69.12-6.32-137.78-14.95-206.26-25.92
			L784.71,595.64z"/>
		<path fill="#FFFFFF" d="M949.23,662.48l-25.76,25.26c-15.14-1.48-30.26-3.09-45.37-4.81c-4.88-11.1-10.98-21.09-18.37-29.97
			C889.49,656.58,919.32,659.75,949.23,662.48z"/>
	</g>
	<path opacity="0.2" d="M1051.65,360.74c4.6-6.97,79.26-30.6,141.27-49.61c-62.98,7.22-170.66,14.65-175.26,21.6
		c-13.46,13.19,17.64,58.45,55.66,97.39l0.55,0.56c9.71,9.86,19.84,19.28,29.77,27.63C1071.63,419.27,1041.07,371.11,1051.65,360.74
		z"/>
	
		<polyline fill="none" stroke="#000000" stroke-width="3" stroke-linecap="round" stroke-linejoin="round" stroke-miterlimit="10" points="
		889.86,723.7 1133.14,485.15 1134.55,483.77 1135.28,483.05 	"/>
	
		<polyline fill="none" stroke="#000000" stroke-width="3" stroke-linecap="round" stroke-linejoin="round" stroke-miterlimit="10" points="
		1021.49,366.47 1010.39,377.35 985.92,401.35 944.19,442.26 919.72,466.26 877.99,507.17 853.52,531.17 811.81,572.06 
		787.32,596.08 775.8,607.38 	"/>
	<g>
		
			<path fill="#D7B899" stroke="#000000" stroke-width="3" stroke-linecap="round" stroke-linejoin="round" stroke-miterlimit="10" d="
			M888.33,725.2c-2.45-14.89-6.34-28.51-11.76-40.77c-4.88-11.1-10.98-21.09-18.37-29.97c-14.19-17.04-33.04-29.93-56.95-38.36
			c-7.73-2.74-26.88-7.21-26.99-7.22l-0.01,1.52c13.46,59.87,49.7,98.32,112.58,114.78L888.33,725.2z"/>
	</g>
	<path fill="none" stroke="#000000" stroke-linecap="round" stroke-linejoin="round" stroke-miterlimit="10" d="M848.28,681.95
		c-9.93-4.52-22.73-1.53-29.63,6.92c-3.36,4.11-5.31,9.17-7.25,14.11c-7.34,18.7-15.73,37.78-30.64,51.23s-38.09,19.76-55.5,9.74"/>
	<g>
		<path fill="none" stroke="#000000" stroke-width="3" stroke-linecap="round" stroke-linejoin="round" stroke-miterlimit="10" d="
			M1072.83,431.71c38.19,38.78,82.82,70.76,96.28,57.57c7.12-4.51,16.79-114.27,25.31-176.79"/>
		<path fill="none" stroke="#000000" stroke-width="3" stroke-linecap="round" stroke-linejoin="round" stroke-miterlimit="10" d="
			M1072.28,431.15c-38.02-38.94-69.12-84.2-55.66-97.39c4.64-7.03,114.58-14.54,177.25-21.83"/>
	</g>
</g>
<g>
</g>
<g>
</g>
<g>
</g>
<g>
</g>
<g>
</g>
<g>
</g>
<g>
</g>
<g>
</g>
<g>
</g>
<g>
</g>
<g>
</g>
<g>
</g>
<g>
</g>
<g>
</g>
<g>
</g>
</svg>
