<?xml version="1.0" encoding="utf-8"?>
<!-- Generator: Adobe Illustrator 25.4.1, SVG Export Plug-In . SVG Version: 6.00 Build 0)  -->
<svg version="1.1" id="Layer_1" xmlns="http://www.w3.org/2000/svg" xmlns:xlink="http://www.w3.org/1999/xlink" x="0px" y="0px"
	 width="1920px" height="1080px" viewBox="0 0 1920 1080" style="enable-background:new 0 0 1920 1080;" xml:space="preserve">
<style type="text/css">
	.st0{fill:#BFBFBF;stroke:#000000;stroke-width:0.25;stroke-miterlimit:10;}
	.st1{fill:#E0DEDE;stroke:#000000;stroke-width:0.5;stroke-miterlimit:10;}
	.st2{fill:none;stroke:#000000;stroke-width:0.5;stroke-miterlimit:10;}
	.st3{fill:#BFBFBF;stroke:#000000;stroke-width:0.5;stroke-miterlimit:10;}
	.st4{stroke:#000000;stroke-width:0.5;stroke-miterlimit:10;}
	.st5{fill:#BB9FA4;stroke:#000000;stroke-width:0.5;stroke-miterlimit:10;}
</style>
<path class="st0" d="M611.13,783.11l0.89,0.26c-0.19,0.04-0.38,0.08-0.57,0.12L611.13,783.11"/>
<g>
	<g>
		<g>
			<polygon class="st1" points="1052.97,425.25 1021.84,439.78 950.96,354.77 979.71,346.02 			"/>
			<path class="st1" d="M1021,435.83l88.61,100.5c-19.39,23.16-297.53,35.24-324.64,68.91c67-156,58-137,98.29-218.49l66.96-32.45
				L1021,435.83"/>
			<path class="st1" d="M1015.67,453.5"/>
			<path class="st1" d="M1052.97,425.25l81.69,85.45c-14.4,15.42-12.74,13.92-25.02,25.73l-88.52-100.11L1052.97,425.25z"/>
		</g>
		<path class="st1" d="M993,334.99c2.14,2.46-4.1,8.61-47.29,28.63c-46.13,21.39-76.49,33.88-78.63,31.42
			c-2.14-2.46,24.26-20.61,65.92-38.4C981.58,335.91,990.85,332.53,993,334.99z"/>
	</g>
	<polygon class="st1" points="617.59,659.34 579.25,689.16 594.51,619.09 623.97,606.25 	"/>
	<path class="st2" d="M788.14,596.62l-136.23,46.52C659.16,659.91,754.94,642.71,788.14,596.62z"/>
	<g>
		<path class="st3" d="M706.18,697.22c1.28-0.22,2.58-0.46,3.93-0.71c1.21-0.22,3.15-0.58,5.39-0.97c9.23-1.63,18.99-3.15,28.99-4.5
			c1.05,1.86,1.76,2.94,2.65,4.3c0.49,0.74,1.03,1.57,1.71,2.65c3.08,4.89,8.06,10.92,11.65,15.15L706.18,697.22z"/>
		<path class="st4" d="M744.42,691.18c1.03,1.82,1.73,2.89,2.61,4.24c0.49,0.74,1.03,1.56,1.71,2.64
			c3.01,4.78,7.83,10.64,11.39,14.85l-53.4-15.65c1.11-0.2,2.24-0.4,3.41-0.61c1.21-0.22,3.15-0.58,5.39-0.97
			C724.75,694.04,734.47,692.53,744.42,691.18 M744.55,690.91c-12.25,1.66-22.05,3.27-29.07,4.51c-2.24,0.4-4.18,0.75-5.39,0.97
			c-1.54,0.28-3.01,0.55-4.46,0.8l55.23,16.19c-4.13-4.85-8.91-10.69-11.91-15.46C747.01,694.84,746.2,693.84,744.55,690.91
			L744.55,690.91z"/>
	</g>
	<path class="st3" d="M761.23,713.62l1.42,0.42l0.07-0.24l-1.83-0.54c-3.54-4.2-8.69-10.4-11.84-15.4
		c-0.68-1.08-1.22-1.91-1.71-2.65c-0.9-1.38-1.62-2.46-2.68-4.36l-0.04-0.07l-0.08,0.01c-10.03,1.36-19.82,2.88-29.08,4.52
		c-2.24,0.4-4.18,0.75-5.39,0.97c-1.54,0.28-3.01,0.55-4.46,0.8c-7.62,1.33-14.05,2.26-19.71,3.08c-7.78,1.12-13.92,2.01-19.68,3.42
		c-38.23,9.38-73.28,9.98-98.87,10.43c-2.36,0.04-4.65,0.08-6.86,0.12c-4.1,0.08-8.19,0.12-12.18,0.12
		c-17.03,0-27.8-0.77-29.79-0.92c1.99-1.47,14.98-10.91,36.24-23.44c22.62-13.33,93.76-45.11,97.08-46.58
		c1.86,4.03,8.93,6.25,19.95,6.25c32.03,0,91.94-18.83,116.45-52.86c51.71-15.95,101.98-29.75,149.33-40.97
		c20.5-4.85,40.35-10.4,59.55-15.77c27.2-7.6,52.89-14.78,78.09-19.41c11.29-2.08,24.52-5.4,38.54-8.92
		c27.54-6.92,58.76-14.75,82.71-14.75c10.76,0,21.99,0.24,28.5,3.37c5.36,2.58,7.31,3,11,3c4.04,0,7.05-1.47,10-3
		c3.28-1.7,6.07-1.32,11.54-1.32c5.02,0,11.12,1.51,18.63,4.61c0.8,0.6,1.43,2.52,1.8,5.52c1.17,9.47-0.57,29.01-4.85,34.28
		c-4.75,5.85-25.17,22.74-38.92,32.82c-16.74,9.34-41.36,20.01-73.18,31.69c-31.82,11.69-69.22,23.81-111.18,36.02
		c-43.44,12.65-89.88,24.84-138.01,36.24c-44.74,10.6-97.53,22.95-149.92,34.27L761.23,713.62z"/>
	<g>
		<path class="st5" d="M697.33,606.29c-17.55,10.9-36.61,29.3-45.42,36.85c7.24,11.16,35.21,11.06,64.49,2.27
			C714.07,634.06,710.36,614.71,697.33,606.29z"/>
		<path class="st5" d="M788.14,596.62c-6.77,2.54-53.95-8.25-81.95,4.8c-2.87,1.34-5.84,3-8.86,4.87
			c13.04,8.42,16.74,27.77,19.07,39.12C745.23,636.75,775.33,619.67,788.14,596.62z"/>
	</g>
	<polygon class="st1" points="647.41,692.62 595.47,706.75 683.3,740.38 717.94,731.28 	"/>
	<g>
		<g>
			<path class="st1" d="M1298.27,632.54l-95.79-63.8c-14.28,3.56-28.1,7.02-41.48,10.38l111.41,69.46L1298.27,632.54z"/>
			<polygon class="st1" points="1298.27,632.54 1266.03,646.28 1355.94,703.86 1387.91,691.32 			"/>
			<path class="st1" d="M1211.24,689.12"/>
			<path class="st1" d="M1272.41,648.58L1161,579.12c-254.5,63.92-349.25,92.82-373.03,110.52
				c177.92,14.15,296.67,32.06,478.14,44.31l89.83-30.1L1272.41,648.58"/>
		</g>
		
			<ellipse transform="matrix(0.9323 -0.3616 0.3616 0.9323 -168.7076 525.6055)" class="st1" cx="1319.91" cy="713.54" rx="87.44" ry="6.57"/>
	</g>
	<g>
		<path class="st3" d="M1205.47,358.16"/>
		<path class="st3" d="M1209.47,363.16l27.63-0.69l7.87-28.22c0,0-76.86,6-95.24,21c-18.98,15.49-116.26,196-116.26,196
			l123.78-20.81L1209.47,363.16"/>
		<polygon class="st3" points="1156.25,530.43 1199,523.25 1236.1,362.47 1208.47,363.16 		"/>
	</g>
</g>
<g>
</g>
<g>
</g>
<g>
</g>
<g>
</g>
<g>
</g>
<g>
</g>
<g>
</g>
<g>
</g>
<g>
</g>
<g>
</g>
<g>
</g>
<g>
</g>
<g>
</g>
<g>
</g>
<g>
</g>
</svg>
